<svg xmlns="http://www.w3.org/2000/svg" version="1.0" preserveAspectRatio="xMidYMid meet" viewBox="27.26 102.56 110.22 21.35" width="100pt" height="auto">

<g transform="translate(0.000000,165.000000) scale(0.100000,-0.100000)" fill="white" stroke="none">
<path d="M690 622 c-40 -14 -40 -68 0 -107 30 -29 39 -59 20 -70 -6 -3 -14 5 -20 19 -14 37 -32 32 -28 -6 3 -29 7 -33 33 -36 65 -5 77 45 25 109 -18 23 -29 46 -26 55 7 18 26 9 26 -12 0 -8 7 -14 16 -14 11 0 14 8 12 26 -3 28 -31 45 -58 36z"/>
<path d="M276 603 c-3 -10 -4 -54 -3 -98 2 -67 5 -80 20 -83 14 -3 17 4 17 37 0 34 3 41 19 41 45 0 69 71 35 104 -22 22 -81 21 -88 -1z m64 -43 c0 -20 -5 -30 -15 -30 -10 0 -15 10 -15 30 0 20 5 30 15 30 10 0 15 -10 15 -30z"/>
<path d="M412 608 c-7 -7 -12 -43 -12 -90 0 -72 2 -79 25 -94 23 -15 27 -15 50 0 23 15 25 22 25 94 0 85 -8 102 -50 102 -14 0 -31 -5 -38 -12z m58 -89 c0 -62 -2 -70 -17 -67 -14 2 -19 15 -21 61 -3 57 10 93 29 81 5 -3 9 -37 9 -75z"/>
<path d="M530 520 l0 -100 38 0 c54 0 62 13 62 100 0 87 -8 100 -62 100 l-38 0 0 -100z m65 0 c0 -54 -3 -65 -17 -68 -16 -3 -18 5 -18 68 0 63 2 71 18 68 14 -3 17 -14 17 -68z"/>
<path d="M770 605 c0 -8 9 -15 20 -15 18 0 20 -7 20 -85 0 -69 3 -85 15 -85 12 0 15 16 15 85 0 69 3 85 15 85 8 0 15 7 15 15 0 11 -12 15 -50 15 -38 0 -50 -4 -50 -15z"/>
<path d="M900 520 c0 -82 3 -100 15 -100 11 0 15 11 15 42 0 45 9 44 26 -5 6 -18 18 -33 26 -35 14 -3 15 2 4 40 -11 36 -11 46 2 65 15 25 9 72 -11 85 -7 4 -27 8 -44 8 l-33 0 0 -100z m64 54 c11 -29 6 -44 -14 -44 -16 0 -20 7 -20 30 0 32 23 42 34 14z"/>
<path d="M1027 613 c-2 -5 -3 -46 -2 -92 2 -68 6 -87 21 -98 25 -18 41 -16 64 7 17 17 20 33 20 105 0 69 -3 85 -15 85 -17 0 -16 5 -21 -85 -4 -80 -10 -99 -24 -90 -5 3 -10 44 -10 91 0 66 -3 84 -14 84 -8 0 -17 -3 -19 -7z"/>
<path d="M1160 600 c-11 -20 -12 -103 -3 -148 7 -29 47 -46 74 -32 13 8 19 21 19 46 0 40 -21 43 -30 5 -11 -46 -25 -19 -25 49 0 66 16 102 23 53 2 -13 10 -23 18 -23 11 0 14 9 12 33 -3 29 -6 32 -40 35 -29 2 -39 -1 -48 -18z"/>
<path d="M1270 605 c0 -8 9 -15 20 -15 18 0 20 -7 20 -85 0 -69 3 -85 15 -85 12 0 15 16 15 85 0 66 3 85 14 85 8 0 16 7 20 15 4 12 -5 15 -49 15 -42 0 -55 -3 -55 -15z"/>
</g>
</svg>